<svg id="Layer_1" data-name="Layer 1" xmlns="http://www.w3.org/2000/svg" viewBox="0 0 35.38 27.23"><title>gmail</title><path d="M32.26,38.37l12.29,14a3.68,3.68,0,0,0,5.53,0L62.16,38.61a1.44,1.44,0,0,1,.34-.27A4.19,4.19,0,0,0,60.83,38h-27a4.23,4.23,0,0,0-1.6.32Z" transform="translate(-29.63 -37.99)" fill="#2b97d4"/><path d="M64.36,40a1.34,1.34,0,0,1-.23.4L52.05,54.06a6.32,6.32,0,0,1-9.46,0l-12.3-14L30.23,40a4.14,4.14,0,0,0-.6,2.15V61.05a4.17,4.17,0,0,0,4.17,4.18h27A4.18,4.18,0,0,0,65,61.05V42.17A4.1,4.1,0,0,0,64.36,40Z" transform="translate(-29.63 -37.99)" fill="#2b97d4"/></svg>