<svg id="Layer_1" data-name="Layer 1" xmlns="http://www.w3.org/2000/svg" viewBox="0 0 26.7 34.58"><title>location</title><path d="M49.32,41.22a4,4,0,1,0,4,4A4,4,0,0,0,49.32,41.22Z" transform="translate(-35.97 -32.48)" fill="#2b97d4"/><path d="M49.32,32.48A13.35,13.35,0,0,0,36,45.83c0,6.29,9.7,17.66,12.56,20.88a1.05,1.05,0,0,0,1.57,0C53,63.49,62.67,52.12,62.67,45.83A13.35,13.35,0,0,0,49.32,32.48Zm0,19.31a6.6,6.6,0,1,1,6.6-6.6A6.61,6.61,0,0,1,49.32,51.79Z" transform="translate(-35.97 -32.48)" fill="#2b97d4"/></svg>