<svg id="Layer_1" data-name="Layer 1" xmlns="http://www.w3.org/2000/svg" viewBox="0 0 38 29.85"><title>outline gmail</title><path d="M65.73,13.68h-27a5.49,5.49,0,0,0-5.49,5.49V38.05a5.49,5.49,0,0,0,5.49,5.49h27a5.5,5.5,0,0,0,5.49-5.49V19.17A5.5,5.5,0,0,0,65.73,13.68Zm0,2.62a2.82,2.82,0,0,1,.65.08L55,29.32a3.68,3.68,0,0,1-5.53,0L38.05,16.38a2.75,2.75,0,0,1,.65-.08Zm2.86,21.75a2.86,2.86,0,0,1-2.86,2.86h-27a2.87,2.87,0,0,1-2.87-2.86V19.17a2.83,2.83,0,0,1,.22-1.09l11.43,13a6.32,6.32,0,0,0,9.46,0l11.44-13a2.82,2.82,0,0,1,.21,1.09Z" transform="translate(-33.21 -13.68)" fill="#2b97d4"/></svg>