<svg id="Layer_1" data-name="Layer 1" xmlns="http://www.w3.org/2000/svg" viewBox="0 0 16.96 15.76"><title>call</title><path d="M56.3,53a2.94,2.94,0,0,0-2.51-.57c-.65.27-1.06,1.28-1.48,1.8a.63.63,0,0,1-.81.18,11.33,11.33,0,0,1-5.66-4.85.7.7,0,0,1,.09-.94,3.85,3.85,0,0,0,1-1.67,3.64,3.64,0,0,0-.46-2c-.34-.73-.72-1.78-1.46-2.19a2,2,0,0,0-2.17.32,4.38,4.38,0,0,0-1.52,3.49,5.09,5.09,0,0,0,.13,1.1,8.9,8.9,0,0,0,1.07,2.45c.34.58.71,1.15,1.1,1.69a17.19,17.19,0,0,0,4.81,4.46,14.74,14.74,0,0,0,3,1.43,6.66,6.66,0,0,0,3.49.55,4.23,4.23,0,0,0,3.17-2.35,2.07,2.07,0,0,0,.15-1.2C58.09,53.87,57,53.38,56.3,53Z" transform="translate(-41.35 -42.56)" fill="white" fill-rule="evenodd"/></svg>